<svg width="739" height="220" viewBox="0 0 739 220" fill="none" xmlns="http://www.w3.org/2000/svg">
<g clip-path="url(#clip0_113_971)">
<path d="M180.78 116.22C177.82 133.47 153.52 132.25 153.52 132.25C153.52 132.25 162.7 77.7798 166.25 59.3598C169.8 40.9298 193.63 42.6798 193.63 42.6798C193.63 42.6798 183.74 98.9798 180.78 116.23V116.22Z" fill="black"/>
<path d="M292.37 42.6699C289.13 51.2099 258.38 132.24 258.38 132.24H232.66L198.85 42.6699H224.57L245.43 101.85C245.43 101.85 265.94 46.8499 267.46 42.6299L292.38 42.6799L292.37 42.6699Z" fill="black"/>
<path d="M312.33 95.1899C314.49 105.44 323.48 112.1 336.07 112.1C347.22 112.1 358.37 108.86 366.47 103.64V127.2C358.56 131.34 347.04 134.22 334.09 134.22C307.47 134.22 287.87 115.33 287.87 87.4499C287.87 61.1899 306.76 40.8599 332.66 40.8599C358.56 40.8599 374.57 60.2899 374.57 83.4899C374.57 87.2699 373.85 92.2999 373.13 95.1799H312.33V95.1899ZM312.33 76.6599H351C350.64 67.4799 342.91 61.1899 332.47 61.1899C322.03 61.1899 313.58 68.2099 312.32 76.6599H312.33Z" fill="black"/>
<path d="M406.39 54.0001C411.25 46.2701 418.8 40.8701 429.95 40.8701C449.2 40.8701 461.61 55.2601 461.61 74.5101V132.25H436.97V81.3501C436.97 71.4601 431.03 64.8001 421.68 64.8001C412.33 64.8001 406.93 70.7401 406.39 80.2701V132.25H381.93V42.6701H406.39V54.0001Z" fill="black"/>
<path d="M504.59 42.6699V21.3799H480.13V42.6699H465.01V63.5399H480.13V74.0099V132.24H504.59V74.0099V63.5399H519.7V42.6699H504.59Z" fill="black"/>
<path d="M186.29 31.56C195.005 31.56 202.07 24.4951 202.07 15.78C202.07 7.06495 195.005 0 186.29 0C177.575 0 170.51 7.06495 170.51 15.78C170.51 24.4951 177.575 31.56 186.29 31.56Z" fill="#81C9C5"/>
<path d="M81.8301 70.1502C86.6801 61.7202 83.7801 50.9602 75.3501 46.1102L61.0601 37.8802C43.3601 27.6902 20.7601 33.7802 10.5701 51.4802L2.34014 65.7702C-2.50986 74.2002 0.390135 84.9602 8.82014 89.8102L25.8301 60.2602C31.1701 50.9902 43.0101 47.8002 52.2801 53.1402L81.8301 70.1502Z" fill="#81C9C5"/>
<path d="M73.31 99.6502C81.73 104.51 92.5 101.63 97.36 93.2102L105.61 78.9302C115.82 61.2502 109.76 38.6402 92.08 28.4302L77.8 20.1802C69.38 15.3202 58.61 18.2002 53.75 26.6202L83.28 43.6702C92.54 49.0202 95.72 60.8602 90.37 70.1302L73.32 99.6602L73.31 99.6502Z" fill="#81C9C5"/>
<path d="M54.5702 62.21C46.1502 57.35 35.3802 60.23 30.5202 68.65L22.2702 82.93C12.0602 100.61 18.1202 123.22 35.8002 133.43L50.0802 141.68C58.5002 146.54 69.2702 143.66 74.1302 135.24L44.6002 118.19C35.3402 112.84 32.1602 101 37.5102 91.73L54.5602 62.2L54.5702 62.21Z" fill="#81C9C5"/>
<path d="M45.8899 91.9901C41.0399 100.42 43.9399 111.18 52.3699 116.03L66.6599 124.26C84.3599 134.45 106.96 128.36 117.15 110.66L125.38 96.3701C130.23 87.9401 127.33 77.1801 118.9 72.3301L101.89 101.88C96.5499 111.15 84.7099 114.34 75.4399 109L45.8899 91.9901V91.9901Z" fill="#81C9C5"/>
<path d="M666.95 61.8098C665.82 61.5898 664.39 61.4298 662.68 61.3398C658.95 61.3398 655.39 62.1198 652.01 63.6698C648.63 65.2198 645.56 67.5098 642.81 70.5298L644.27 62.9398C644.27 62.9398 626.77 61.6598 624.16 75.1898C621.55 88.7198 612.65 132.17 612.65 132.17C612.65 132.17 612.83 132.17 613.14 132.18L613.12 132.3L613.25 132.18C616.33 132.2 630.74 131.7 632.68 120.4C633.76 114.11 636.62 99.9198 639.23 87.2098C641.99 83.9498 644.71 81.4498 647.89 79.7098C651.14 77.9398 654.5 77.0498 657.97 77.0498C659.62 77.0498 661.2 77.2098 662.7 77.5198C664.2 77.8298 665.55 78.2998 666.73 78.9198L669.8 62.9398C669.03 62.4098 668.09 62.0298 666.96 61.8098H666.95Z" fill="black"/>
<path d="M664.58 97.6999C665.55 92.6399 667.39 87.9099 670.1 83.5199C672.81 79.1299 676.1 75.3099 679.98 72.0699C683.86 68.8299 688.19 66.2799 692.98 64.4099C697.77 62.5499 702.68 61.6099 707.72 61.6099C712.76 61.6099 717.31 62.5399 721.38 64.4099C725.45 66.2699 728.8 68.8299 731.44 72.0699C734.07 75.3099 735.9 79.1299 736.93 83.5199C737.95 87.9099 737.98 92.6399 737.01 97.6999C736.04 102.76 734.2 107.49 731.49 111.88C728.78 116.27 725.49 120.07 721.62 123.26C717.75 126.46 713.42 128.99 708.64 130.85C703.85 132.71 698.94 133.65 693.91 133.65C688.88 133.65 684.32 132.72 680.25 130.85C676.18 128.99 672.82 126.46 670.18 123.26C667.54 120.06 665.7 116.27 664.68 111.88C663.65 107.49 663.63 102.76 664.6 97.6999H664.58ZM696.94 117.8C702.15 117.8 706.95 115.85 711.35 111.94C715.75 108.03 718.48 103.29 719.55 97.6899C720.64 92.0099 719.74 87.2199 716.84 83.3099C713.94 79.4099 709.89 77.4499 704.68 77.4499C699.47 77.4499 694.67 79.3999 690.27 83.3099C685.87 87.2199 683.13 92.0099 682.04 97.6899C680.97 103.28 681.88 108.03 684.78 111.94C687.68 115.85 691.73 117.8 696.94 117.8Z" fill="black"/>
<path d="M611.9 83.5199C610.73 79.1299 608.78 75.3099 606.04 72.0699C603.3 68.8299 599.86 66.2799 595.73 64.4099C591.6 62.5499 587.01 61.6099 581.98 61.6099C576.95 61.6099 572.06 62.5399 567.34 64.4099C565.98 64.9499 564.66 65.5499 563.37 66.1999C563.82 64.0899 564.07 62.8799 564.07 62.8799C564.07 62.8799 546.57 61.5999 543.96 75.1299C541.35 88.6599 526.47 160.14 526.47 160.14C526.47 160.14 544.32 161.04 546.49 148.37C547.08 144.91 548.67 136.95 550.65 127.22C552.48 128.62 554.51 129.84 556.76 130.85C560.89 132.71 565.48 133.65 570.51 133.65C575.54 133.65 580.43 132.72 585.15 130.85C589.88 128.99 594.12 126.46 597.89 123.26C601.66 120.06 604.82 116.27 607.39 111.88C609.96 107.49 611.64 102.76 612.45 97.6999C613.26 92.6399 613.07 87.9099 611.91 83.5199H611.9ZM594.99 97.6999C594.1 103.29 591.52 108.04 587.25 111.95C582.98 115.86 578.24 117.81 573.03 117.81C567.82 117.81 563.7 115.86 560.68 111.95C557.65 108.04 556.59 103.3 557.48 97.6999C558.38 92.0199 560.97 87.2299 565.24 83.3199C569.51 79.4199 574.25 77.4599 579.46 77.4599C584.67 77.4599 588.79 79.4099 591.81 83.3199C594.84 87.2299 595.9 92.0199 594.99 97.6999V97.6999Z" fill="black"/>
<path d="M160.85 210.1L161.1 208.93C160.27 209.41 159.39 209.78 158.46 210.03C157.53 210.28 156.59 210.41 155.63 210.41C154.16 210.41 152.78 210.13 151.5 209.58C150.22 209.03 149.1 208.27 148.15 207.31C147.2 206.35 146.45 205.2 145.89 203.87C145.33 202.54 145.03 201.1 145 199.57C144.97 197.74 145.28 196.02 145.95 194.42C146.61 192.82 147.52 191.41 148.67 190.21C149.82 189.01 151.18 188.07 152.76 187.38C154.34 186.69 156.03 186.35 157.83 186.35C159.21 186.35 160.5 186.56 161.71 186.98C162.92 187.4 163.99 188 164.94 188.78L166.92 178.61L173.24 177.26L166.84 210.11H160.86L160.85 210.1ZM150.94 199.03C150.97 200.8 151.58 202.27 152.77 203.44C153.96 204.61 155.43 205.19 157.17 205.19C158.1 205.19 158.98 205.03 159.82 204.72C160.65 204.4 161.41 203.96 162.09 203.39L163.91 194.08C163.27 193.33 162.44 192.73 161.43 192.28C160.42 191.83 159.33 191.6 158.16 191.6C156.12 191.6 154.4 192.32 153 193.76C151.6 195.2 150.92 196.95 150.96 199.02L150.94 199.03Z" fill="black"/>
<path d="M183.07 186.65L178.53 210.09H172.5L177.04 186.65H183.07ZM180.95 183.86C180.11 183.86 179.38 183.56 178.77 182.96C178.16 182.36 177.85 181.63 177.83 180.75C177.81 179.7 178.18 178.79 178.95 178.01C179.72 177.23 180.61 176.84 181.63 176.84C182.47 176.84 183.19 177.14 183.81 177.74C184.42 178.34 184.73 179.06 184.75 179.9C184.77 180.95 184.39 181.87 183.63 182.67C182.86 183.46 181.97 183.86 180.95 183.86Z" fill="black"/>
<path d="M196.08 210.23C194.61 210.23 193.24 209.96 191.97 209.42C190.7 208.88 189.59 208.13 188.65 207.17C187.7 206.21 186.96 205.07 186.41 203.75C185.86 202.43 185.58 201.01 185.55 199.48C185.52 197.68 185.83 195.98 186.47 194.37C187.12 192.77 188.01 191.37 189.16 190.19C190.31 189.01 191.67 188.07 193.23 187.38C194.79 186.69 196.47 186.35 198.27 186.35C199.65 186.35 200.94 186.56 202.15 186.98C203.36 187.4 204.42 187.99 205.33 188.74L205.74 186.67H211.77L207.03 211.28C206.51 214.04 205.31 216.16 203.43 217.65C201.55 219.14 199.13 219.88 196.16 219.88C194.24 219.88 192.3 219.59 190.34 219C188.38 218.42 186.66 217.61 185.17 216.59L187.88 212.05C189.18 212.89 190.52 213.54 191.9 214.01C193.28 214.48 194.6 214.71 195.89 214.71C197.36 214.71 198.52 214.36 199.38 213.67C200.24 212.98 200.8 211.96 201.08 210.61L201.41 208.86C200.61 209.31 199.75 209.65 198.84 209.89C197.93 210.13 197.01 210.25 196.08 210.25V210.23ZM191.47 198.94C191.5 200.71 192.1 202.18 193.26 203.35C194.42 204.52 195.87 205.1 197.61 205.1C198.54 205.1 199.41 204.95 200.23 204.65C201.05 204.35 201.8 203.91 202.48 203.35L204.3 194.04C203.66 193.29 202.83 192.7 201.82 192.26C200.81 191.83 199.73 191.61 198.59 191.61C196.58 191.61 194.88 192.33 193.5 193.77C192.12 195.21 191.44 196.94 191.48 198.94H191.47Z" fill="black"/>
<path d="M223.52 186.65L218.98 210.09H212.95L217.49 186.65H223.52ZM221.4 183.86C220.56 183.86 219.83 183.56 219.22 182.96C218.61 182.36 218.3 181.63 218.28 180.75C218.26 179.7 218.63 178.79 219.4 178.01C220.17 177.23 221.06 176.84 222.08 176.84C222.92 176.84 223.64 177.14 224.26 177.74C224.87 178.34 225.18 179.06 225.2 179.9C225.22 180.95 224.84 181.87 224.08 182.67C223.31 183.46 222.42 183.86 221.4 183.86Z" fill="black"/>
<path d="M229.16 203.08L231.35 191.83H226.63L227.62 186.66H232.34L233.5 180.68L239.82 179.29L238.37 186.67H244.89L243.9 191.84H237.38L235.35 202.1C235.13 203.24 235.25 204.06 235.71 204.55C236.17 205.05 237.04 205.29 238.33 205.29C238.81 205.29 239.27 205.26 239.72 205.2C240.17 205.14 240.66 205.05 241.2 204.93L240.21 209.92C239.67 210.04 239 210.15 238.19 210.26C237.38 210.36 236.63 210.42 235.94 210.42C233.33 210.42 231.44 209.78 230.26 208.51C229.08 207.24 228.71 205.43 229.15 203.09L229.16 203.08Z" fill="black"/>
<path d="M252.73 210.37C250.3 210.37 248.35 209.78 246.89 208.59C245.43 207.4 244.68 205.82 244.65 203.84C244.61 201.47 245.46 199.59 247.21 198.19C248.96 196.8 251.34 196.1 254.37 196.1C255.48 196.1 256.58 196.21 257.68 196.41C258.78 196.62 259.81 196.91 260.78 197.27L261.03 196.1C261.33 194.51 261.07 193.32 260.25 192.52C259.43 191.72 258.07 191.33 256.18 191.33C255.34 191.33 254.39 191.45 253.33 191.69C252.27 191.93 251.02 192.32 249.59 192.86L248.02 188.23C249.72 187.57 251.35 187.07 252.92 186.74C254.49 186.41 255.98 186.25 257.39 186.25C260.96 186.25 263.59 187.12 265.29 188.86C266.99 190.6 267.54 192.98 266.97 196.01L264.25 210.09H258.31L258.6 208.65C257.65 209.22 256.7 209.65 255.74 209.93C254.78 210.22 253.78 210.36 252.73 210.36V210.37ZM250.36 203.31C250.37 204.15 250.77 204.81 251.54 205.29C252.31 205.77 253.37 206.01 254.73 206.01C255.57 206.01 256.38 205.91 257.15 205.7C257.93 205.49 258.65 205.16 259.34 204.71L260.04 201.2C259.28 200.87 258.46 200.62 257.57 200.44C256.68 200.26 255.79 200.17 254.89 200.17C253.48 200.17 252.37 200.46 251.55 201.03C250.74 201.6 250.34 202.36 250.35 203.32L250.36 203.31Z" fill="black"/>
<path d="M282.12 177.25L275.72 210.1H269.69L275.84 178.6L282.12 177.25Z" fill="black"/>
<path d="M298.8 210.1L293.49 186.66H299.92L303.12 202.27L312.43 186.66H319.04L304.6 210.1H298.8V210.1Z" fill="black"/>
<path d="M339.79 207.67C338.37 208.69 336.96 209.43 335.55 209.9C334.15 210.36 332.61 210.6 330.93 210.6C329.25 210.6 327.63 210.32 326.15 209.77C324.67 209.22 323.4 208.44 322.33 207.45C321.26 206.46 320.43 205.28 319.82 203.9C319.21 202.52 318.89 201.02 318.86 199.4C318.83 197.63 319.14 195.94 319.78 194.34C320.43 192.74 321.31 191.34 322.43 190.16C323.55 188.98 324.87 188.04 326.41 187.35C327.94 186.66 329.58 186.32 331.32 186.32C332.85 186.32 334.28 186.61 335.61 187.17C336.94 187.74 338.08 188.52 339.03 189.51C339.98 190.5 340.73 191.69 341.28 193.09C341.83 194.48 342.12 195.99 342.15 197.61C342.15 197.94 342.15 198.29 342.12 198.67C342.1 199.05 342.05 199.64 341.97 200.45H324.87C325.17 201.95 325.9 203.16 327.07 204.09C328.24 205.02 329.65 205.48 331.3 205.48C332.29 205.48 333.22 205.33 334.08 205.03C334.94 204.73 335.7 204.31 336.35 203.77L339.79 207.69V207.67ZM331.09 191.43C329.74 191.43 328.53 191.86 327.47 192.71C326.4 193.56 325.64 194.68 325.19 196.06H336.44C336.15 194.68 335.52 193.56 334.56 192.71C333.6 191.86 332.45 191.43 331.1 191.43H331.09Z" fill="black"/>
<path d="M344.51 210.1L349.05 186.66H355.08L354.75 188.33C355.67 187.67 356.66 187.17 357.74 186.82C358.81 186.48 359.94 186.3 361.11 186.3C362.49 186.3 363.72 186.55 364.81 187.04C365.9 187.53 366.78 188.22 367.46 189.09C368.13 189.96 368.6 191 368.86 192.19C369.12 193.39 369.11 194.69 368.84 196.11L366.11 210.1H360.04L362.69 196.69C362.96 195.16 362.72 193.92 361.97 192.96C361.22 192 360.11 191.52 358.64 191.52C357.71 191.52 356.82 191.7 355.97 192.06C355.12 192.42 354.37 192.96 353.73 193.68L350.55 210.1H344.52H344.51Z" fill="black"/>
<path d="M381.76 186.65L379.16 200.06C378.86 201.59 379.08 202.84 379.83 203.79C380.58 204.75 381.71 205.23 383.21 205.23C384.14 205.23 385.01 205.04 385.83 204.67C386.65 204.29 387.4 203.78 388.07 203.12L391.25 186.65H397.32L392.74 210.09H386.71L387.04 208.42C386.12 209.08 385.12 209.58 384.05 209.93C382.98 210.27 381.85 210.45 380.68 210.45C379.3 210.45 378.07 210.2 376.98 209.71C375.89 209.22 375.01 208.53 374.33 207.66C373.65 206.79 373.19 205.76 372.95 204.56C372.7 203.36 372.72 202.06 372.99 200.64L375.71 186.65H381.74H381.76Z" fill="black"/>
<path d="M420.55 207.67C419.13 208.69 417.72 209.43 416.31 209.9C414.91 210.36 413.37 210.6 411.69 210.6C410.01 210.6 408.39 210.32 406.91 209.77C405.43 209.22 404.16 208.44 403.09 207.45C402.02 206.46 401.18 205.28 400.58 203.9C399.97 202.52 399.65 201.02 399.62 199.4C399.59 197.63 399.9 195.94 400.54 194.34C401.19 192.74 402.07 191.34 403.19 190.16C404.31 188.98 405.64 188.04 407.17 187.35C408.7 186.66 410.34 186.32 412.08 186.32C413.61 186.32 415.04 186.61 416.37 187.17C417.7 187.74 418.84 188.52 419.79 189.51C420.74 190.5 421.49 191.69 422.04 193.09C422.59 194.48 422.88 195.99 422.91 197.61C422.91 197.94 422.91 198.29 422.88 198.67C422.86 199.05 422.81 199.64 422.73 200.45H405.63C405.93 201.95 406.66 203.16 407.83 204.09C409 205.02 410.41 205.48 412.06 205.48C413.05 205.48 413.98 205.33 414.84 205.03C415.7 204.73 416.46 204.31 417.11 203.77L420.55 207.69V207.67ZM411.85 191.43C410.5 191.43 409.29 191.86 408.23 192.71C407.17 193.56 406.4 194.68 405.95 196.06H417.2C416.91 194.68 416.28 193.56 415.32 192.71C414.36 191.86 413.21 191.43 411.86 191.43H411.85Z" fill="black"/>
<path d="M424.49 206.59L427.89 202.68C429.17 203.76 430.45 204.57 431.73 205.11C433.02 205.65 434.32 205.92 435.64 205.92C436.87 205.92 437.86 205.68 438.62 205.2C439.38 204.72 439.75 204.11 439.74 203.36C439.74 202.85 439.5 202.42 439.07 202.08C438.63 201.74 437.99 201.46 437.14 201.25L432.8 200.31C430.87 199.89 429.39 199.13 428.35 198.04C427.31 196.95 426.78 195.59 426.75 193.97C426.71 191.63 427.52 189.77 429.17 188.39C430.83 187.01 433.08 186.32 435.93 186.32C437.82 186.32 439.64 186.63 441.39 187.24C443.14 187.86 444.72 188.75 446.12 189.92L442.81 193.65C441.59 192.75 440.38 192.07 439.15 191.6C437.93 191.14 436.75 190.9 435.61 190.9C434.53 190.9 433.68 191.11 433.06 191.53C432.44 191.95 432.13 192.52 432.14 193.24C432.14 193.81 432.37 194.27 432.79 194.61C433.22 194.96 433.94 195.23 434.96 195.44L439.25 196.38C441.24 196.8 442.76 197.56 443.83 198.65C444.9 199.74 445.45 201.07 445.47 202.63C445.49 203.77 445.25 204.83 444.76 205.8C444.27 206.77 443.58 207.62 442.71 208.32C441.84 209.03 440.8 209.58 439.59 209.99C438.38 210.39 437.07 210.6 435.66 210.6C433.5 210.6 431.42 210.24 429.43 209.52C427.44 208.8 425.79 207.83 424.47 206.6L424.49 206.59Z" fill="black"/>
<path d="M460.95 186.65H466.03L466.61 183.77C467.08 181.34 468.11 179.48 469.71 178.19C471.31 176.9 473.35 176.26 475.84 176.26C476.59 176.26 477.38 176.33 478.21 176.46C479.04 176.6 479.71 176.77 480.22 176.98L479.27 182.11C478.76 181.93 478.24 181.79 477.73 181.7C477.22 181.61 476.69 181.57 476.15 181.57C475.13 181.57 474.32 181.8 473.73 182.27C473.14 182.74 472.75 183.43 472.55 184.36L472.09 186.65H478.3L477.31 191.82H471.1L467.5 210.09H461.47L465.02 191.82H459.94L460.93 186.65H460.95Z" fill="#81C9C5"/>
<path d="M478.9 199.25C478.87 197.48 479.18 195.8 479.85 194.21C480.51 192.62 481.43 191.23 482.59 190.05C483.75 188.87 485.13 187.93 486.73 187.24C488.32 186.55 490 186.21 491.77 186.21C493.39 186.21 494.92 186.5 496.35 187.06C497.78 187.63 499.02 188.42 500.06 189.42C501.1 190.42 501.92 191.62 502.53 193C503.14 194.38 503.46 195.86 503.49 197.45C503.52 199.22 503.2 200.9 502.52 202.49C501.84 204.08 500.92 205.47 499.76 206.65C498.59 207.84 497.22 208.78 495.65 209.48C494.08 210.18 492.4 210.54 490.63 210.54C489.01 210.54 487.48 210.25 486.05 209.68C484.62 209.11 483.38 208.32 482.34 207.32C481.3 206.32 480.48 205.12 479.87 203.72C479.26 202.33 478.94 200.83 478.91 199.24L478.9 199.25ZM490.79 205.19C491.72 205.19 492.6 204.99 493.44 204.61C494.27 204.22 495 203.69 495.62 203.01C496.24 202.34 496.72 201.54 497.06 200.63C497.4 199.71 497.57 198.75 497.55 197.73C497.52 195.96 496.94 194.49 495.81 193.32C494.68 192.15 493.26 191.57 491.55 191.57C490.62 191.57 489.74 191.77 488.91 192.15C488.08 192.54 487.36 193.07 486.76 193.75C486.16 194.42 485.68 195.21 485.34 196.11C485 197.01 484.83 197.97 484.85 198.99C484.88 200.79 485.46 202.27 486.59 203.44C487.72 204.61 489.12 205.19 490.8 205.19H490.79Z" fill="#81C9C5"/>
<path d="M505.81 210.1L510.39 186.66H516.42L515.96 188.95C516.81 188.05 517.76 187.37 518.8 186.9C519.84 186.44 520.95 186.2 522.12 186.2C522.72 186.2 523.28 186.25 523.81 186.36C524.34 186.47 524.75 186.62 525.06 186.83L524.03 192.23C523.73 192.02 523.24 191.83 522.56 191.67C521.88 191.51 521.26 191.42 520.69 191.42C519.58 191.42 518.52 191.69 517.51 192.23C516.5 192.77 515.63 193.55 514.9 194.57L511.89 210.09H505.82L505.81 210.1Z" fill="#81C9C5"/>
<path d="M556.75 207.67C555.33 208.69 553.92 209.43 552.51 209.9C551.11 210.36 549.57 210.6 547.89 210.6C546.21 210.6 544.58 210.32 543.11 209.77C541.63 209.22 540.36 208.44 539.29 207.45C538.22 206.46 537.38 205.28 536.78 203.9C536.18 202.52 535.85 201.02 535.82 199.4C535.79 197.63 536.1 195.94 536.74 194.34C537.39 192.74 538.27 191.34 539.39 190.16C540.51 188.98 541.84 188.04 543.37 187.35C544.9 186.66 546.54 186.32 548.28 186.32C549.81 186.32 551.24 186.61 552.57 187.17C553.9 187.74 555.04 188.52 555.99 189.51C556.94 190.5 557.69 191.69 558.23 193.09C558.78 194.48 559.07 195.99 559.1 197.61C559.1 197.94 559.1 198.29 559.07 198.67C559.05 199.05 559 199.64 558.92 200.45H541.82C542.12 201.95 542.85 203.16 544.02 204.09C545.19 205.02 546.6 205.48 548.25 205.48C549.24 205.48 550.17 205.33 551.03 205.03C551.9 204.73 552.65 204.31 553.3 203.77L556.74 207.69L556.75 207.67ZM548.05 191.43C546.7 191.43 545.49 191.86 544.43 192.71C543.37 193.56 542.6 194.68 542.15 196.06H553.4C553.11 194.68 552.48 193.56 551.52 192.71C550.56 191.86 549.41 191.43 548.06 191.43H548.05Z" fill="#81C9C5"/>
<path d="M567.23 210.1L561.92 186.66H568.35L571.55 202.27L580.86 186.66H587.47L573.03 210.1H567.23V210.1Z" fill="#81C9C5"/>
<path d="M608.22 207.67C606.8 208.69 605.39 209.43 603.98 209.9C602.58 210.36 601.04 210.6 599.36 210.6C597.68 210.6 596.05 210.32 594.58 209.77C593.1 209.22 591.83 208.44 590.76 207.45C589.69 206.46 588.85 205.28 588.25 203.9C587.65 202.52 587.32 201.02 587.29 199.4C587.26 197.63 587.57 195.94 588.21 194.34C588.86 192.74 589.74 191.34 590.86 190.16C591.98 188.98 593.31 188.04 594.84 187.35C596.37 186.66 598.01 186.32 599.75 186.32C601.28 186.32 602.71 186.61 604.04 187.17C605.37 187.74 606.51 188.52 607.46 189.51C608.41 190.5 609.16 191.69 609.7 193.09C610.25 194.48 610.54 195.99 610.57 197.61C610.57 197.94 610.57 198.29 610.54 198.67C610.52 199.05 610.47 199.64 610.39 200.45H593.29C593.59 201.95 594.32 203.16 595.49 204.09C596.66 205.02 598.07 205.48 599.72 205.48C600.71 205.48 601.64 205.33 602.5 205.03C603.37 204.73 604.12 204.31 604.77 203.77L608.21 207.69L608.22 207.67ZM599.52 191.43C598.17 191.43 596.96 191.86 595.9 192.71C594.84 193.56 594.07 194.68 593.62 196.06H604.87C604.58 194.68 603.95 193.56 602.99 192.71C602.03 191.86 600.88 191.43 599.53 191.43H599.52Z" fill="#81C9C5"/>
<path d="M612.9 210.1L617.48 186.66H623.51L623.05 188.95C623.9 188.05 624.85 187.37 625.89 186.9C626.93 186.44 628.04 186.2 629.21 186.2C629.81 186.2 630.37 186.25 630.9 186.36C631.43 186.47 631.84 186.62 632.15 186.83L631.12 192.23C630.82 192.02 630.33 191.83 629.65 191.67C628.97 191.51 628.35 191.42 627.78 191.42C626.67 191.42 625.61 191.69 624.6 192.23C623.59 192.77 622.72 193.55 621.99 194.57L618.98 210.09H612.91L612.9 210.1Z" fill="#81C9C5"/>
<path d="M638.12 211.22L638.86 210.05L634.4 186.65H640.83L643.55 203.16L653.34 186.65H659.95L643.9 212.88C642.44 215.25 640.9 216.97 639.27 218.03C637.64 219.09 635.73 219.63 633.54 219.63C632.88 219.63 632.26 219.58 631.67 219.49C631.08 219.4 630.52 219.29 629.98 219.18L630.97 213.92C631.27 214.01 631.61 214.08 631.98 214.12C632.36 214.16 632.75 214.19 633.17 214.19C634.22 214.19 635.15 213.95 635.95 213.47C636.75 212.99 637.47 212.24 638.12 211.22V211.22Z" fill="#81C9C5"/>
<path d="M659.73 199.25C659.7 197.48 660.02 195.8 660.68 194.21C661.34 192.62 662.26 191.23 663.42 190.05C664.58 188.87 665.96 187.93 667.56 187.24C669.15 186.55 670.83 186.21 672.6 186.21C674.22 186.21 675.75 186.5 677.18 187.06C678.62 187.63 679.85 188.42 680.89 189.42C681.93 190.42 682.75 191.62 683.36 193C683.97 194.38 684.29 195.86 684.32 197.45C684.35 199.22 684.03 200.9 683.35 202.49C682.67 204.08 681.75 205.47 680.59 206.65C679.43 207.84 678.05 208.78 676.48 209.48C674.9 210.18 673.23 210.54 671.46 210.54C669.84 210.54 668.31 210.25 666.88 209.68C665.44 209.11 664.21 208.32 663.17 207.32C662.13 206.32 661.31 205.12 660.7 203.72C660.09 202.33 659.77 200.83 659.74 199.24L659.73 199.25ZM671.62 205.19C672.55 205.19 673.43 204.99 674.26 204.61C675.09 204.23 675.82 203.69 676.44 203.01C677.06 202.34 677.54 201.54 677.88 200.63C678.22 199.71 678.39 198.75 678.37 197.73C678.34 195.96 677.76 194.49 676.63 193.32C675.5 192.15 674.08 191.57 672.37 191.57C671.44 191.57 670.56 191.77 669.73 192.15C668.9 192.54 668.18 193.07 667.58 193.75C666.98 194.43 666.5 195.21 666.16 196.11C665.82 197.01 665.65 197.97 665.67 198.99C665.7 200.79 666.28 202.27 667.41 203.44C668.54 204.61 669.94 205.19 671.62 205.19V205.19Z" fill="#81C9C5"/>
<path d="M686.69 210.1L691.23 186.66H697.26L696.93 188.33C697.85 187.67 698.85 187.17 699.92 186.82C700.99 186.48 702.12 186.3 703.29 186.3C704.67 186.3 705.9 186.55 706.99 187.04C708.08 187.53 708.96 188.22 709.64 189.09C710.31 189.96 710.78 191 711.04 192.19C711.3 193.39 711.29 194.69 711.02 196.11L708.3 210.1H702.23L704.87 196.69C705.14 195.16 704.9 193.92 704.15 192.96C703.4 192 702.29 191.52 700.82 191.52C699.89 191.52 699 191.7 698.15 192.06C697.3 192.42 696.55 192.96 695.91 193.68L692.73 210.1H686.7H686.69Z" fill="#81C9C5"/>
<path d="M735.87 207.67C734.45 208.69 733.04 209.43 731.63 209.9C730.23 210.36 728.69 210.6 727.01 210.6C725.33 210.6 723.7 210.32 722.23 209.77C720.75 209.22 719.48 208.44 718.41 207.45C717.34 206.46 716.5 205.28 715.9 203.9C715.3 202.52 714.97 201.02 714.94 199.4C714.91 197.63 715.22 195.94 715.86 194.34C716.51 192.74 717.39 191.34 718.51 190.16C719.63 188.98 720.96 188.04 722.49 187.35C724.02 186.66 725.66 186.32 727.4 186.32C728.93 186.32 730.36 186.61 731.69 187.17C733.02 187.74 734.16 188.52 735.11 189.51C736.06 190.5 736.81 191.69 737.35 193.09C737.9 194.48 738.19 195.99 738.22 197.61C738.22 197.94 738.22 198.29 738.19 198.67C738.17 199.05 738.12 199.64 738.04 200.45H720.94C721.24 201.95 721.97 203.16 723.14 204.09C724.31 205.02 725.72 205.48 727.37 205.48C728.36 205.48 729.29 205.33 730.15 205.03C731.02 204.73 731.77 204.31 732.42 203.77L735.86 207.69L735.87 207.67ZM727.17 191.43C725.82 191.43 724.61 191.86 723.55 192.71C722.49 193.56 721.72 194.68 721.27 196.06H732.52C732.23 194.68 731.6 193.56 730.64 192.71C729.68 191.86 728.53 191.43 727.18 191.43H727.17Z" fill="#81C9C5"/>
</g>
<defs>
<clipPath id="clip0_113_971">
<rect width="738.22" height="219.86" fill="white"/>
</clipPath>
</defs>
</svg>
