<?xml version="1.0" encoding="UTF-8"?><svg id="Layer_1" xmlns="http://www.w3.org/2000/svg" viewBox="0 0 717.94 271.16"><defs><style>.cls-1{fill:#e8404b;}.cls-2{fill:#22234a;}</style></defs><path class="cls-2" d="M593.01,91.96c-2.06-.4-4.66-.69-7.79-.85-6.8,0-13.29,1.42-19.45,4.25-6.16,2.83-11.75,7-16.76,12.49l2.65-13.83s-31.88-2.34-36.64,22.32c-4.76,24.66-20.97,103.83-20.97,103.83,0,0,.32,.02,.89,.02l-.04,.22,.23-.22c5.62,.04,31.87-.87,35.41-21.47,1.97-11.46,7.18-37.32,11.94-60.47,5.03-5.94,9.99-10.5,15.78-13.67,5.92-3.23,12.04-4.85,18.38-4.85,3,0,5.88,.28,8.62,.85,2.74,.57,5.19,1.42,7.34,2.55l5.58-29.11c-1.4-.97-3.12-1.66-5.18-2.06Z"/><path class="cls-2" d="M584.69,157.35c1.77-9.22,5.12-17.83,10.06-25.84,4.94-8.01,10.94-14.96,18.01-20.86,7.07-5.9,14.96-10.55,23.68-13.95,8.72-3.4,17.67-5.09,26.85-5.09s17.47,1.7,24.89,5.09c7.42,3.4,13.53,8.05,18.33,13.95,4.8,5.91,8.13,12.86,10,20.86,1.86,8.01,1.92,16.62,.15,25.84-1.77,9.22-5.12,17.83-10.06,25.84-4.94,8.01-10.93,14.92-17.98,20.74-7.05,5.82-14.94,10.43-23.66,13.83-8.72,3.4-17.67,5.09-26.85,5.09s-17.48-1.7-24.89-5.09c-7.42-3.4-13.54-8.01-18.35-13.83-4.82-5.82-8.16-12.74-10.02-20.74-1.87-8.01-1.91-16.62-.15-25.84Zm58.95,36.63c9.49,0,18.25-3.56,26.26-10.67,8.01-7.12,12.99-15.77,14.95-25.96,1.99-10.35,.34-19.08-4.94-26.2-5.28-7.11-12.67-10.67-22.16-10.67s-18.25,3.56-26.26,10.67c-8.01,7.12-13.01,15.85-15,26.2-1.95,10.19-.29,18.84,4.99,25.96,5.28,7.12,12.67,10.67,22.16,10.67Z"/><path class="cls-2" d="M496.69,131.51c-2.13-8.01-5.69-14.96-10.68-20.86-4.99-5.9-11.25-10.55-18.78-13.95-7.53-3.4-15.88-5.09-25.06-5.09s-18.07,1.7-26.68,5.09c-2.49,.98-4.89,2.08-7.23,3.27,.81-3.85,1.28-6.04,1.28-6.04,0,0-31.88-2.34-36.64,22.32-4.76,24.66-31.87,154.89-31.87,154.89,0,0,32.52,1.64,36.48-21.45,1.08-6.31,3.97-20.81,7.59-38.54,3.34,2.56,7.04,4.77,11.13,6.61,7.53,3.4,15.88,5.09,25.06,5.09s18.07-1.7,26.68-5.09c8.61-3.4,16.35-8.01,23.21-13.83,6.86-5.82,12.63-12.74,17.31-20.74,4.67-8.01,7.75-16.62,9.22-25.84,1.47-9.22,1.14-17.83-.99-25.84Zm-30.81,25.84c-1.62,10.19-6.32,18.84-14.1,25.96-7.78,7.12-16.41,10.67-25.91,10.67s-17-3.56-22.51-10.67c-5.51-7.12-7.46-15.77-5.84-25.96,1.65-10.35,6.36-19.08,14.14-26.2,7.78-7.11,16.41-10.67,25.91-10.67s17,3.56,22.51,10.67c5.51,7.12,7.45,15.85,5.8,26.2Z"/><g><path class="cls-1" d="M114.42,96.95l-15.56,70.9c-1.81,8.09-.79,14.67,3.05,19.75,3.84,5.08,9.73,7.61,17.67,7.61,4.92,0,9.56-.99,13.94-2.97,4.38-1.98,8.4-4.71,12.08-8.21l19.02-87.08h32.12l-27.41,123.96h-31.88l1.97-8.8c-4.95,3.49-10.28,6.15-16,7.97-5.72,1.82-11.68,2.74-17.87,2.74-7.3,0-13.79-1.31-19.48-3.93-5.69-2.62-10.26-6.22-13.71-10.83-3.45-4.6-5.75-10.07-6.89-16.42-1.14-6.34-.89-13.24,.76-20.7l16.3-74h31.88Z"/><path class="cls-1" d="M180.51,220.92l27.17-123.96h31.88l-1.98,8.8c4.94-3.49,10.28-6.15,16.01-7.97,5.73-1.82,11.68-2.74,17.87-2.74,7.29,0,13.79,1.31,19.48,3.93,5.69,2.62,10.26,6.23,13.71,10.83,3.45,4.6,5.79,10.07,7.01,16.42,1.22,6.35,1,13.24-.64,20.7l-16.3,74h-32.12l15.8-70.9c1.65-8.09,.55-14.67-3.29-19.75-3.85-5.07-9.66-7.61-17.43-7.61-4.92,0-9.64,.95-14.18,2.86-4.54,1.9-8.57,4.76-12.08,8.56l-19.02,86.85h-31.88Z"/></g><g><path class="cls-2" d="M105.12,67.58c-1.72,10.03-15.85,9.32-15.85,9.32,0,0,5.34-31.67,7.4-42.39,2.07-10.72,15.92-9.7,15.92-9.7,0,0-5.75,32.74-7.47,42.77Z"/><path class="cls-2" d="M170.01,24.81c-1.89,4.97-19.77,52.09-19.77,52.09h-14.96l-19.66-52.09h14.96l12.13,34.41s11.92-31.98,12.81-34.44l14.49,.03Z"/><path class="cls-2" d="M181.62,55.35c1.26,5.96,6.48,9.83,13.81,9.83,6.49,0,12.97-1.88,17.68-4.92v13.7c-4.6,2.41-11.3,4.08-18.83,4.08-15.48,0-26.88-10.98-26.88-27.19,0-15.27,10.98-27.09,26.04-27.09s24.37,11.3,24.37,24.79c0,2.2-.42,5.13-.84,6.8h-35.35Zm0-10.77h22.49c-.21-5.34-4.71-9-10.77-9s-10.98,4.08-11.71,9Z"/><path class="cls-2" d="M236.32,31.4c2.82-4.5,7.22-7.64,13.7-7.64,11.19,0,18.41,8.37,18.41,19.56v33.58h-14.33v-29.6c0-5.75-3.45-9.62-8.89-9.62s-8.58,3.45-8.89,9v30.23h-14.22V24.81h14.22v6.59Z"/><polygon class="cls-2" points="293.42 24.81 293.42 12.44 279.2 12.44 279.2 24.81 270.41 24.81 270.41 36.95 279.2 36.95 279.2 43.04 279.2 76.9 293.42 76.9 293.42 43.04 293.42 36.95 302.21 36.95 302.21 24.81 293.42 24.81"/><circle class="cls-1" cx="108.33" cy="9.17" r="9.17"/><path class="cls-1" d="M47.59,40.79h0c2.82-4.9,1.13-11.16-3.77-13.98l-8.31-4.78c-10.29-5.92-23.43-2.38-29.36,7.91L1.37,38.25c-2.82,4.9-1.13,11.16,3.77,13.98h0s9.89-17.19,9.89-17.19c3.1-5.39,9.99-7.25,15.38-4.14l17.19,9.89Z"/><path class="cls-1" d="M42.63,57.94h0c4.9,2.83,11.16,1.15,13.98-3.75l4.8-8.31c5.94-10.28,2.41-23.43-7.87-29.37l-8.31-4.8c-4.9-2.83-11.16-1.15-13.98,3.75h0s17.17,9.91,17.17,9.91c5.39,3.11,7.23,10,4.12,15.38l-9.91,17.17Z"/><path class="cls-1" d="M31.73,36.18h0c-4.9-2.83-11.16-1.15-13.98,3.75l-4.8,8.31c-5.94,10.28-2.41,23.43,7.87,29.37l8.31,4.8c4.9,2.83,11.16,1.15,13.98-3.75h0s-17.17-9.91-17.17-9.91c-5.39-3.11-7.23-10-4.12-15.38l9.91-17.17Z"/><path class="cls-1" d="M26.69,53.49h0c-2.82,4.9-1.13,11.16,3.77,13.98l8.31,4.78c10.29,5.92,23.43,2.38,29.36-7.91l4.78-8.31c2.82-4.9,1.13-11.16-3.77-13.98h0s-9.89,17.19-9.89,17.19c-3.1,5.39-9.99,7.25-15.38,4.14l-17.19-9.89Z"/></g><path class="cls-1" d="M342.77,199.07c-5.18,24.03-38.95,22.33-38.95,22.33,0,0,16.1-75.88,22.17-101.55,6.07-25.67,39.15-23.24,39.15-23.24,0,0-17.2,78.43-22.37,102.46Z"/><circle class="cls-2" cx="355.17" cy="57.28" r="21.98"/></svg>