<svg id="Layer_1" data-name="Layer 1" xmlns="http://www.w3.org/2000/svg" viewBox="0 0 195.1 90.32"><defs><style>.cls-1{fill:#fff;}</style></defs><path class="cls-1" d="M345.9,273.52V237H374v6.57h-20.5v8.35H367v6.36H353.47v8.66h20.71v6.58Z" transform="translate(-343.86 -234.95)"/><path class="cls-1" d="M376.22,275.56H343.86V235H376v10.67H355.51v4.25H369v10.46H355.51v4.57h20.71ZM371,271.47a1.14,1.14,0,0,0,1.13-1.14v-.21A1.14,1.14,0,0,0,371,269H351.42V256.24H363.8a1.13,1.13,0,0,0,1.13-1.14h0A1.13,1.13,0,0,0,363.8,254H351.42V241.53h19.37a1.13,1.13,0,0,0,1.13-1.14v-.21a1.13,1.13,0,0,0-1.13-1.14H348v32.43Z" transform="translate(-343.86 -234.95)"/><path class="cls-1" d="M396,272.54l-13.55-33.4a1.56,1.56,0,0,1,1.44-2.14h4.82a1.55,1.55,0,0,1,1.45,1l9.34,24.15a1.56,1.56,0,0,0,2.9,0L411.92,238a1.57,1.57,0,0,1,1.45-1h4.44a1.56,1.56,0,0,1,1.44,2.15l-13.74,33.4a1.57,1.57,0,0,1-1.44,1H397.4A1.57,1.57,0,0,1,396,272.54Z" transform="translate(-343.86 -234.95)"/><path class="cls-1" d="M405.44,275.56H396a1.55,1.55,0,0,1-1.44-1l-15.22-37.5a1.56,1.56,0,0,1,1.45-2.14h9.25a1.56,1.56,0,0,1,1.45,1l8,20.58a1.56,1.56,0,0,0,2.9,0l8.16-20.6a1.56,1.56,0,0,1,1.45-1h8.89a1.56,1.56,0,0,1,1.44,2.15l-15.43,37.5A1.56,1.56,0,0,1,405.44,275.56Zm-6.67-4.09h3.93a1.56,1.56,0,0,0,1.44-1l12.06-29.32a1.56,1.56,0,0,0-1.44-2.15h0a1.56,1.56,0,0,0-1.45,1l-11,27.73a1.56,1.56,0,0,1-2.9,0L388.71,240a1.56,1.56,0,0,0-1.45-1h-.38a1.56,1.56,0,0,0-1.44,2.15l11.89,29.31A1.55,1.55,0,0,0,398.77,271.47Z" transform="translate(-343.86 -234.95)"/><path class="cls-1" d="M426.54,273.11v-35.7H454v6.42h-20V252h13.2v6.23h-13.2v8.46h20.24v6.43Z" transform="translate(-343.86 -234.95)"/><path class="cls-1" d="M456.18,275.11H424.54v-39.7H456v10.42h-20V250h13.2v10.23h-13.2v4.46h20.24Zm-5.11-4a1.11,1.11,0,0,0,1.11-1.11v-.21a1.11,1.11,0,0,0-1.11-1.11H431.94V256.22H444a1.11,1.11,0,0,0,1.11-1.12h0A1.11,1.11,0,0,0,444,254H431.94V241.83h18.93a1.11,1.11,0,0,0,1.11-1.11v-.2a1.11,1.11,0,0,0-1.11-1.11H428.54v31.7Z" transform="translate(-343.86 -234.95)"/><path class="cls-1" d="M466.41,237.41h4.24a1.86,1.86,0,0,1,1.48.73l13.83,18a1.87,1.87,0,0,0,3.36-1.14V239.28a1.88,1.88,0,0,1,1.88-1.87h3.18a1.88,1.88,0,0,1,1.88,1.87v32a1.88,1.88,0,0,1-1.88,1.88h-3.72a1.88,1.88,0,0,1-1.49-.74l-14.28-18.72a1.88,1.88,0,0,0-3.37,1.14v16.44a1.88,1.88,0,0,1-1.87,1.88h-3.24a1.88,1.88,0,0,1-1.88-1.88v-32A1.88,1.88,0,0,1,466.41,237.41Z" transform="translate(-343.86 -234.95)"/><path class="cls-1" d="M496.38,275.11h-6.71a1.88,1.88,0,0,1-1.49-.74l-11.29-14.8a1.88,1.88,0,0,0-3.37,1.14v12.52a1.88,1.88,0,0,1-1.87,1.88h-7.24a1.88,1.88,0,0,1-1.88-1.88v-36a1.88,1.88,0,0,1,1.88-1.87h7.22a1.87,1.87,0,0,1,1.49.73L484,250.25a1.87,1.87,0,0,0,3.36-1.14V237.28a1.88,1.88,0,0,1,1.88-1.87h7.18a1.88,1.88,0,0,1,1.88,1.87v36A1.88,1.88,0,0,1,496.38,275.11Z" transform="translate(-343.86 -234.95)"/><path class="cls-1" d="M505.54,242v-2.66a1.92,1.92,0,0,1,1.93-1.93H535a1.92,1.92,0,0,1,1.93,1.93V242a1.93,1.93,0,0,1-1.93,1.94H526.9a1.92,1.92,0,0,0-1.93,1.93v25.31a1.94,1.94,0,0,1-1.93,1.93H519.5a1.94,1.94,0,0,1-1.93-1.93V245.87a1.92,1.92,0,0,0-1.93-1.93h-8.17A1.93,1.93,0,0,1,505.54,242Z" transform="translate(-343.86 -234.95)"/><path class="cls-1" d="M525,275.11H517.5a1.94,1.94,0,0,1-1.93-1.93V247.87a1.92,1.92,0,0,0-1.93-1.93h-8.17a1.93,1.93,0,0,1-1.93-1.94v-6.66a1.92,1.92,0,0,1,1.93-1.93H537a1.92,1.92,0,0,1,1.93,1.93V244a1.93,1.93,0,0,1-1.93,1.94H528.9a1.92,1.92,0,0,0-1.93,1.93v25.31A1.94,1.94,0,0,1,525,275.11Z" transform="translate(-343.86 -234.95)"/><path class="cls-1" d="M345.83,321.14V289.37a1.66,1.66,0,0,1,1.66-1.67h3.94a1.67,1.67,0,0,1,1.67,1.67v10.76a1.67,1.67,0,0,0,1.67,1.67h12.81a1.67,1.67,0,0,0,1.67-1.67V289.37a1.66,1.66,0,0,1,1.66-1.67h3.94a1.67,1.67,0,0,1,1.67,1.67v31.77a1.67,1.67,0,0,1-1.67,1.67h-3.94a1.66,1.66,0,0,1-1.66-1.67v-11a1.66,1.66,0,0,0-1.67-1.66H354.77a1.66,1.66,0,0,0-1.67,1.66v11a1.67,1.67,0,0,1-1.67,1.67h-3.94A1.66,1.66,0,0,1,345.83,321.14Z" transform="translate(-343.86 -234.95)"/><path class="cls-1" d="M376.81,324.77H369a1.66,1.66,0,0,1-1.67-1.66v-11a1.67,1.67,0,0,0-1.67-1.67h-8.88a1.67,1.67,0,0,0-1.67,1.67v11a1.66,1.66,0,0,1-1.67,1.66h-7.86a1.66,1.66,0,0,1-1.67-1.66v-35.7a1.67,1.67,0,0,1,1.67-1.67h7.86a1.66,1.66,0,0,1,1.67,1.67v10.75a1.67,1.67,0,0,0,1.67,1.67h8.88a1.67,1.67,0,0,0,1.67-1.67V287.41a1.67,1.67,0,0,1,1.67-1.67h7.86a1.66,1.66,0,0,1,1.67,1.67v35.7A1.66,1.66,0,0,1,376.81,324.77Z" transform="translate(-343.86 -234.95)"/><path class="cls-1" d="M387.9,322.81V287.7h27V294H395.17v8h13v6.11h-13v8.33h19.91v6.32Z" transform="translate(-343.86 -234.95)"/><path class="cls-1" d="M417.05,324.77H385.93v-39h30.92V296H397.14v4.09h13v10.05h-13v4.39h19.91Z" transform="translate(-343.86 -234.95)"/><path class="cls-1" d="M467.59,320.35V290.16a2.46,2.46,0,0,1,2.46-2.46h11a19.49,19.49,0,0,1,7.32,1.36,18.06,18.06,0,0,1,5.89,3.71,17.29,17.29,0,0,1,5.35,12.59,16.74,16.74,0,0,1-1.43,6.87,17.11,17.11,0,0,1-3.92,5.54,18.32,18.32,0,0,1-5.89,3.68,19.49,19.49,0,0,1-7.32,1.36h-11A2.46,2.46,0,0,1,467.59,320.35ZM481,294.17h-3.71a2.46,2.46,0,0,0-2.46,2.46v17.25a2.46,2.46,0,0,0,2.46,2.46H481a11.11,11.11,0,0,0,7.87-3.19,10.51,10.51,0,0,0,2.36-3.48,10.9,10.9,0,0,0,.85-4.31,11.38,11.38,0,0,0-.85-4.42,10.76,10.76,0,0,0-5.89-5.91A11.09,11.09,0,0,0,481,294.17Z" transform="translate(-343.86 -234.95)"/><path class="cls-1" d="M481.08,324.77h-13a2.46,2.46,0,0,1-2.46-2.45V288.19a2.46,2.46,0,0,1,2.46-2.45h13a21.73,21.73,0,0,1,8.05,1.49,20.32,20.32,0,0,1,6.52,4.11,19.27,19.27,0,0,1,6,14,18.92,18.92,0,0,1-6,13.84,20.48,20.48,0,0,1-6.51,4.08A21.73,21.73,0,0,1,481.08,324.77Zm-11.52-6.39a2.46,2.46,0,0,0,2.45,2.46h9.07a17.92,17.92,0,0,0,6.6-1.21,16.66,16.66,0,0,0,5.27-3.3,15.07,15.07,0,0,0,3.46-4.9,14.76,14.76,0,0,0,1.26-6.07,15.5,15.5,0,0,0-1.26-6.19,15.28,15.28,0,0,0-3.47-5,16.2,16.2,0,0,0-5.26-3.32,17.92,17.92,0,0,0-6.6-1.21H472a2.46,2.46,0,0,0-2.45,2.46Zm11.47-.07h-5.68a2.46,2.46,0,0,1-2.45-2.46V294.66a2.45,2.45,0,0,1,2.45-2.45H481a13.07,13.07,0,0,1,5.1,1,12.79,12.79,0,0,1,6.95,7,13.56,13.56,0,0,1,1,5.17,12.94,12.94,0,0,1-1,5.08,12.78,12.78,0,0,1-2.79,4.12,13.19,13.19,0,0,1-9.25,3.75Zm-4.2-6.4a2.46,2.46,0,0,0,2.46,2.46H481a9.2,9.2,0,0,0,6.49-2.62,8.81,8.81,0,0,0,1.93-2.85,9.05,9.05,0,0,0,.7-3.54,9.49,9.49,0,0,0-.71-3.67,8.85,8.85,0,0,0-1.93-2.92,9.11,9.11,0,0,0-6.48-2.63h-1.74a2.46,2.46,0,0,0-2.46,2.46Z" transform="translate(-343.86 -234.95)"/><path class="cls-1" d="M507.42,316.22l2.49-3.12a1.34,1.34,0,0,1,1.88-.22,21.85,21.85,0,0,0,4.87,3,14.9,14.9,0,0,0,6,1.23,9.89,9.89,0,0,0,5.22-1.2,3.65,3.65,0,0,0,2-3.21,3.33,3.33,0,0,0-1.33-2.81,10.45,10.45,0,0,0-4.44-1.51l-7-1.2a12,12,0,0,1-6.85-3.16,8.58,8.58,0,0,1-2.33-6.22,9.25,9.25,0,0,1,3.74-7.77q3.74-2.87,10.1-2.86a24.09,24.09,0,0,1,7.7,1.31,22.75,22.75,0,0,1,5.66,2.77,1.36,1.36,0,0,1,.35,1.92l-2.34,3.24a1.33,1.33,0,0,1-1.84.32,21.07,21.07,0,0,0-4.46-2.41,15.48,15.48,0,0,0-5.57-1,8.81,8.81,0,0,0-4.66,1.08,3.25,3.25,0,0,0-1.76,2.88,3,3,0,0,0,1.15,2.51,8.41,8.41,0,0,0,3.87,1.3l6.61,1.11q5.22.85,7.85,3.33a8.58,8.58,0,0,1,2.64,6.55,9.74,9.74,0,0,1-4,8.17q-4,3.06-10.76,3.06a22.35,22.35,0,0,1-8.3-1.61,23.64,23.64,0,0,1-6.2-3.57A1.36,1.36,0,0,1,507.42,316.22Z" transform="translate(-343.86 -234.95)"/><path class="cls-1" d="M522.15,325.28a24.71,24.71,0,0,1-9-1.74,25.64,25.64,0,0,1-7.84-4.84l-.44-.39a1.36,1.36,0,0,1-.15-1.84l4.94-6.18a1.33,1.33,0,0,1,1.93-.17l.49.42a21.83,21.83,0,0,0,5.38,3.57,13,13,0,0,0,5.21,1.06,8,8,0,0,0,4.19-.91c.89-.55,1-1.06,1-1.53a1.33,1.33,0,0,0-.55-1.24,8.31,8.31,0,0,0-3.57-1.13l-7-1.21a13.86,13.86,0,0,1-7.92-3.73,10.49,10.49,0,0,1-2.89-7.59,11.19,11.19,0,0,1,4.51-9.33c2.83-2.17,6.63-3.26,11.3-3.26a26.22,26.22,0,0,1,8.32,1.4,24.14,24.14,0,0,1,7.4,3.94l.46.37a1.33,1.33,0,0,1,.26,1.83l-4.64,6.42a1.33,1.33,0,0,1-1.9.28l-.51-.39a20.37,20.37,0,0,0-5-2.9,13.6,13.6,0,0,0-4.87-.9,7.08,7.08,0,0,0-3.64.78c-.75.47-.81.87-.81,1.21a1,1,0,0,0,.4,1,6.45,6.45,0,0,0,2.93.91l6.66,1.11c3.85.63,6.84,1.92,8.87,3.84a10.5,10.5,0,0,1,3.25,8,11.67,11.67,0,0,1-4.81,9.74C531.07,324.11,527.05,325.28,522.15,325.28Zm-11.91-9.44a1.36,1.36,0,0,0,.33,2,21.54,21.54,0,0,0,4,2.05,20.55,20.55,0,0,0,7.58,1.47c4,0,7.24-.89,9.57-2.66a7.8,7.8,0,0,0,3.26-6.6,6.63,6.63,0,0,0-2-5.12c-1.45-1.37-3.74-2.32-6.81-2.82L519.52,303a10.06,10.06,0,0,1-4.75-1.69,5,5,0,0,1-1.91-4.06,5.18,5.18,0,0,1,2.7-4.56,10.75,10.75,0,0,1,5.69-1.37,17.49,17.49,0,0,1,6.26,1.16,21.52,21.52,0,0,1,3.35,1.64,1.34,1.34,0,0,0,1.76-.37h0a1.35,1.35,0,0,0-.45-2,22.5,22.5,0,0,0-3.35-1.43,22.1,22.1,0,0,0-7.07-1.2c-3.78,0-6.78.82-8.91,2.45a7.35,7.35,0,0,0-3,6.21,6.63,6.63,0,0,0,1.77,4.85,10.18,10.18,0,0,0,5.76,2.59l7,1.21a11.94,11.94,0,0,1,5.29,1.87,5.28,5.28,0,0,1,2.11,4.38,5.54,5.54,0,0,1-2.89,4.88,11.73,11.73,0,0,1-6.25,1.5,16.91,16.91,0,0,1-6.77-1.39,21.41,21.41,0,0,1-3.82-2.18,1.33,1.33,0,0,0-1.8.28Z" transform="translate(-343.86 -234.95)"/><path class="cls-1" d="M441.18,301.11a14.94,14.94,0,0,1,7,1.78,2.35,2.35,0,0,0,3.17-1,11.78,11.78,0,0,0,.08-10.89,10,10,0,0,0-4.81-4.72c-8.47-3.89-16.73,2.19-16.73,10.21a11.28,11.28,0,0,0,1.28,5.24,2.38,2.38,0,0,0,3.18,1.06A14.68,14.68,0,0,1,441.18,301.11Z" transform="translate(-343.86 -234.95)"/><path class="cls-1" d="M441.34,304.89c-8.41,0-15.35,7.51-16.43,17.24a2.37,2.37,0,0,0,2.36,2.64H455.4a2.37,2.37,0,0,0,2.36-2.64C456.68,312.4,449.74,304.89,441.34,304.89Z" transform="translate(-343.86 -234.95)"/></svg>